HIERARCHY
ROOT SpineBase
{
  OFFSET 0.000000 0.000000 0.000000
  CHANNELS 6 Xposition Yposition Zposition Zrotation Xrotation Yrotation
  JOINT SpineMid
  {
    OFFSET 0.000000 27.396857 0.000000
    CHANNELS 3 Zrotation Xrotation Yrotation
    JOINT SpineShoulder
    {
      OFFSET -0.056606 20.421155 -0.666300
      CHANNELS 3 Zrotation Xrotation Yrotation
      JOINT Neck
      {
        OFFSET -0.041087 6.771821 -0.506023
        CHANNELS 3 Zrotation Xrotation Yrotation
        JOINT Head
        {
          OFFSET -1.962820 10.882244 0.428444
          CHANNELS 3 Zrotation Xrotation Yrotation
          End Site
          {
            OFFSET 0 0 0
          }
        }
      }
      JOINT ShoulderLeft
      {
        OFFSET -16.255601 -2.804308 6.182315
        CHANNELS 3 Zrotation Xrotation Yrotation
        JOINT ElbowLeft
        {
          OFFSET -3.221347 -21.092787 0.267342
          CHANNELS 3 Zrotation Xrotation Yrotation
          JOINT WristLeft
          {
            OFFSET 4.365097 -7.609862 -23.171845
            CHANNELS 3 Zrotation Xrotation Yrotation
            JOINT HandLeft
            {
              OFFSET 3.802978 0.262633 -0.381675
              CHANNELS 3 Zrotation Xrotation Yrotation
              JOINT HandTipLeft
              {
                OFFSET 5.888137 0.544567 -6.000948
                CHANNELS 3 Zrotation Xrotation Yrotation
                End Site
                {
                  OFFSET 0 0 0
                }
              }
              JOINT ThumbLeft
              {
                OFFSET -3.955380 0.694319 -3.655474
                CHANNELS 3 Zrotation Xrotation Yrotation
                End Site
                {
                  OFFSET 0 0 0
                }
              }
            }
          }
        }
      }
      JOINT ShoulderRight
      {
        OFFSET 15.218397 -1.642891 -5.501135
        CHANNELS 3 Zrotation Xrotation Yrotation
        JOINT ElbowRight
        {
          OFFSET 9.109696 -20.362224 -2.350242
          CHANNELS 3 Zrotation Xrotation Yrotation
          JOINT WristRight
          {
            OFFSET -13.057714 -10.574148 -9.737879
            CHANNELS 3 Zrotation Xrotation Yrotation
            JOINT HandRight
            {
              OFFSET -4.021084 -0.682771 2.994106
              CHANNELS 3 Zrotation Xrotation Yrotation
              JOINT HandTipRight
              {
                OFFSET -8.540363 0.372378 -8.391750
                CHANNELS 3 Zrotation Xrotation Yrotation
                End Site
                {
                  OFFSET 0 0 0
                }
              }
              JOINT ThumbRight
              {
                OFFSET 0.592883 -6.663290 0.376138
                CHANNELS 3 Zrotation Xrotation Yrotation
                End Site
                {
                  OFFSET 0 0 0
                }
              }
            }
          }
        }
      }
    }
  }
  JOINT HipLeft
  {
    OFFSET -4.954680 0.204816 -1.680009
    CHANNELS 3 Zrotation Xrotation Yrotation
    JOINT KneeLeft
    {
      OFFSET -8.223265 -33.713503 4.056008
      CHANNELS 3 Zrotation Xrotation Yrotation
      JOINT AnkleLeft
      {
        OFFSET -2.390231 -36.280130 6.979180
        CHANNELS 3 Zrotation Xrotation Yrotation
        JOINT FootLeft
        {
          OFFSET -1.065768 -7.411882 -6.339545
          CHANNELS 3 Zrotation Xrotation Yrotation
          End Site
          {
            OFFSET 0 0 0
          }
        }
      }
    }
  }
  JOINT HipRight
  {
    OFFSET 4.510873 0.862759 -4.801329
    CHANNELS 3 Zrotation Xrotation Yrotation
    JOINT KneeRight
    {
      OFFSET 6.237795 -28.707362 2.320541
      CHANNELS 3 Zrotation Xrotation Yrotation
      JOINT AnkleRight
      {
        OFFSET 2.130397 -39.487630 11.439500
        CHANNELS 3 Zrotation Xrotation Yrotation
        JOINT FootRight
        {
          OFFSET -0.424357 -8.279992 -4.632495
          CHANNELS 3 Zrotation Xrotation Yrotation
          End Site
          {
            OFFSET 0 0 0
          }
        }
      }
    }
  }
}
MOTION
Frames: 7
Frame Time: 0.033333
25.756703 75.937638 372.369647 2.314357 -8.115338 21.709167 -0.200595 0.066229 -21.484102 -0.489054 0.268302 0.056834 8.186733 4.297069 -2.000486 0.000000 0.000000 0.000000 -23.782258 19.369724 3.220910 67.245855 39.012810 -50.011880 22.179607 -36.829389 79.001643 -4.745258 15.508314 -24.326701 0.000000 0.000000 0.000000 0.000000 0.000000 0.000000 -31.434164 27.556837 23.720013 -55.620071 9.918409 13.288254 4.269195 -45.647013 -64.744876 -31.017880 43.455204 78.164209 0.000000 0.000000 0.000000 0.000000 0.000000 0.000000 0.848861 8.394265 -21.607263 1.852937 -0.063260 0.362016 -4.925399 13.127798 0.704320 0.000000 0.000000 0.000000 0.858468 4.663157 -22.246551 -0.343257 4.333944 0.970419 -8.870767 28.921327 3.862935 0.000000 0.000000 0.000000
25.850639 76.379609 372.237629 2.364704 -7.977263 24.070699 -0.254092 0.046313 -23.840809 -0.555355 0.215022 0.057406 7.626611 5.203148 -1.813337 0.000000 0.000000 0.000000 -23.663474 18.564525 3.161643 65.345015 37.259550 -48.928394 21.084006 -34.402443 76.244227 -5.005491 15.513022 -24.018736 0.000000 0.000000 0.000000 0.000000 0.000000 0.000000 -29.189593 26.597202 21.786448 -56.800542 10.036836 14.854186 5.610739 -43.839458 -66.153209 -31.372384 40.810417 79.600753 0.000000 0.000000 0.000000 0.000000 0.000000 0.000000 1.093279 8.246537 -23.984607 1.725357 -0.113919 0.341424 -3.275875 9.108926 -0.147014 0.000000 0.000000 0.000000 0.568898 4.138861 -24.689833 -0.110755 4.823325 1.096192 -7.226640 27.506330 2.663135 0.000000 0.000000 0.000000
25.943345 76.807972 372.093683 2.422409 -7.879172 26.310324 -0.272158 0.016287 -26.075756 -0.581567 0.120478 0.060255 6.960595 6.355274 -1.606376 0.000000 0.000000 0.000000 -23.447871 18.099757 3.104967 63.848625 36.107495 -48.160345 20.248757 -33.016230 74.661211 -4.507127 15.670704 -23.839158 0.000000 0.000000 0.000000 0.000000 0.000000 0.000000 -26.921523 25.604017 19.826483 -58.140598 10.239916 16.509065 7.643918 -41.541372 -68.222122 -29.343698 37.309384 80.915516 0.000000 0.000000 0.000000 0.000000 0.000000 0.000000 1.320789 8.135086 -26.237402 1.638692 -0.450742 0.351462 -1.791997 7.066461 -1.075568 0.000000 0.000000 0.000000 0.166707 3.787947 -26.999658 0.301446 5.354772 1.231018 -5.281579 22.204601 1.274648 0.000000 0.000000 0.000000
26.021527 77.043099 372.009143 2.445456 -7.817715 27.183945 -0.262952 0.022988 -26.948642 -0.588411 0.018925 0.062123 6.383410 7.128074 -1.440285 0.000000 0.000000 0.000000 -22.605974 18.740000 2.954012 62.158593 35.267996 -47.205258 19.912250 -32.434736 74.506587 -5.264732 15.452102 -23.172027 0.000000 0.000000 0.000000 0.000000 0.000000 0.000000 -24.648100 24.496310 17.869983 -59.567668 10.531958 18.224794 9.414035 -39.326308 -70.512549 -28.541355 34.403290 81.934421 0.000000 0.000000 0.000000 0.000000 0.000000 0.000000 1.396483 8.069852 -27.115338 1.455856 -0.973372 0.356289 -1.324552 7.026836 -1.246344 0.000000 0.000000 0.000000 0.104833 3.553845 -27.907783 0.093971 5.357227 1.225131 -4.164504 21.613802 0.727000 0.000000 0.000000 0.000000
26.118061 77.032551 371.985109 2.507867 -7.831076 26.443479 -0.227993 0.050963 -26.202964 -0.529361 -0.096932 0.066770 5.803738 7.969365 -1.290309 0.000000 0.000000 0.000000 -21.019663 19.998006 2.628089 60.171740 35.242817 -46.212211 20.619138 -32.222988 74.955062 -7.354454 15.274142 -21.488429 0.000000 0.000000 0.000000 0.000000 0.000000 0.000000 -22.933310 23.453014 16.235866 -60.769050 10.896850 19.773521 10.432939 -37.616664 -72.544077 -26.024825 33.757958 80.531036 0.000000 0.000000 0.000000 0.000000 0.000000 0.000000 1.240912 8.126894 -26.359957 1.028217 -1.404840 0.302433 -2.299726 13.491463 -0.675881 0.000000 0.000000 0.000000 0.120234 3.497760 -27.166104 -0.414422 5.361285 1.152051 0.814995 10.705003 -1.729330 0.000000 0.000000 0.000000
26.205234 77.074031 371.975944 2.557388 -7.869241 25.941759 -0.174992 0.085563 -25.697628 -0.505316 -0.147210 0.070886 5.467789 8.409639 -1.206359 0.000000 0.000000 0.000000 -19.553086 21.364144 2.282168 59.101868 35.933011 -45.755418 21.404759 -33.092838 77.017401 -8.045490 15.303705 -21.415874 0.000000 0.000000 0.000000 0.000000 0.000000 0.000000 -21.977151 22.714430 15.238906 -61.381129 11.356954 20.684781 10.653895 -36.131816 -74.597980 -22.579007 33.970420 79.235982 0.000000 0.000000 0.000000 0.000000 0.000000 0.000000 1.141007 8.193350 -25.847557 0.941176 -1.511264 0.292458 -3.470592 16.235588 0.171626 0.000000 0.000000 0.000000 0.163574 3.541111 -26.652349 -0.740062 5.379042 1.097551 4.232922 4.114927 -3.153663 0.000000 0.000000 0.000000
26.266271 76.988909 371.981624 2.548219 -7.883858 24.926595 -0.103059 0.092950 -24.686164 -0.482066 -0.158725 0.073453 5.376082 8.489621 -1.191574 0.000000 0.000000 0.000000 -18.107265 22.638266 1.897039 58.815158 37.613223 -45.787536 23.248813 -34.587555 78.707190 -9.627881 15.266002 -20.808925 0.000000 0.000000 0.000000 0.000000 0.000000 0.000000 -22.087325 22.560989 15.159653 -61.258149 11.715711 20.725327 9.131571 -35.778434 -75.487352 -17.629816 36.977726 75.618125 0.000000 0.000000 0.000000 0.000000 0.000000 0.000000 1.009293 8.221674 -24.823513 0.536000 -1.449746 0.204974 -6.457621 26.249442 2.276088 0.000000 0.000000 0.000000 0.371416 3.629122 -25.607898 -1.076327 5.297012 1.026242 4.385348 3.278076 -3.061809 0.000000 0.000000 0.000000
